<svg xmlns="http://www.w3.org/2000/svg" width="1920" height="1080" viewBox="0 0 1920 1080" font-family="Manrope, system-ui, sans-serif">
<defs>

<pattern id="dots" width="32" height="32" patternUnits="userSpaceOnUse"><circle cx="1.6" cy="1.6" r="1.6" fill="#E4E9F1"></circle></pattern>
<filter id="cardShadow" x="-20%" y="-20%" width="140%" height="140%"><feDropShadow dx="0" dy="14" stdDeviation="17" flood-color="#12172B" flood-opacity="0.10"></feDropShadow></filter>
<filter id="softShadow" x="-30%" y="-30%" width="160%" height="160%"><feDropShadow dx="0" dy="8" stdDeviation="10" flood-color="#12172B" flood-opacity="0.07"></feDropShadow></filter>
<filter id="podShadow" x="-40%" y="-40%" width="180%" height="180%"><feDropShadow dx="0" dy="6" stdDeviation="7" flood-color="#000000" flood-opacity="0.16"></feDropShadow></filter>
</defs>
<rect width="1920" height="1080" fill="#F6F8FB"></rect>
<rect width="1920" height="1080" fill="url(#dots)"></rect>
<path d="M 620,350 C 660,270 720,270 760,310" stroke="rgba(74,84,104,0.42)" stroke-width="2.5" fill="none" stroke-dasharray="3 9" stroke-linecap="round"></path><path d="M 1460,430 C 1280,380 1260,200 1220,150" stroke="rgba(74,84,104,0.42)" stroke-width="2.5" fill="none" stroke-dasharray="3 9" stroke-linecap="round"></path><path d="M 1460,608 C 1260,560 1240,230 1220,190" stroke="rgba(74,84,104,0.42)" stroke-width="2.5" fill="none" stroke-dasharray="3 9" stroke-linecap="round"></path><path d="M 1460,786 C 1240,720 1230,270 1220,230" stroke="rgba(74,84,104,0.42)" stroke-width="2.5" fill="none" stroke-dasharray="3 9" stroke-linecap="round"></path><path d="M 1870,430 C 1915,470 1915,880 1870,915" stroke="rgba(74,84,104,0.42)" stroke-width="2.5" fill="none" stroke-dasharray="3 9" stroke-linecap="round"></path><path d="M 1870,608 C 1908,650 1908,880 1870,935" stroke="rgba(74,84,104,0.42)" stroke-width="2.5" fill="none" stroke-dasharray="3 9" stroke-linecap="round"></path><path d="M 1870,786 C 1900,820 1900,880 1870,955" stroke="rgba(74,84,104,0.42)" stroke-width="2.5" fill="none" stroke-dasharray="3 9" stroke-linecap="round"></path><path d="M 660,1000 C 950,1065 1250,1055 1460,995" stroke="rgba(74,84,104,0.42)" stroke-width="2.5" fill="none" stroke-dasharray="3 9" stroke-linecap="round"></path>
<path d="M 660,645 C 950,560 1200,460 1460,430" stroke="#B453FF" stroke-width="12" opacity="0.28" fill="none" stroke-linecap="round"></path><path d="M 660,645 C 950,560 1200,460 1460,430" stroke="#B453FF" stroke-width="4" opacity="1" fill="none" stroke-linecap="round"></path><path d="M 660,645 C 900,650 1220,615 1460,608" stroke="#B453FF" stroke-width="9" opacity="0.18" fill="none" stroke-linecap="round"></path><path d="M 660,645 C 900,650 1220,615 1460,608" stroke="#B453FF" stroke-width="3" opacity="0.6" fill="none" stroke-linecap="round"></path><path d="M 660,645 C 900,700 1220,780 1460,786" stroke="#B453FF" stroke-width="9" opacity="0.18" fill="none" stroke-linecap="round"></path><path d="M 660,645 C 900,700 1220,780 1460,786" stroke="#B453FF" stroke-width="3" opacity="0.6" fill="none" stroke-linecap="round"></path>
<rect x="985" y="556" width="118" height="34" rx="17" fill="#fff" stroke="#B453FF" stroke-width="1.5"></rect><circle cx="1006" cy="573" r="5" fill="#B453FF"></circle><text x="1018" y="579" font-family="Manrope, system-ui, sans-serif" font-weight="700" font-size="15" fill="#5B32B8">Liqo peering</text>
<rect x="50" y="350" width="650" height="680" rx="28" fill="#FFFFFF" stroke="#1FAA59" stroke-width="3" filter="url(#cardShadow)"></rect><rect x="72" y="333" width="132" height="34" rx="17" fill="#1FAA59"></rect><text x="138" y="356.5" text-anchor="middle" font-family="Manrope, system-ui, sans-serif" font-weight="800" font-size="19" letter-spacing="0.4" fill="#fff">CONSUMER</text><rect x="74" y="378" width="186" height="96" rx="14" fill="#EAF7EF" stroke="#1FAA5955" stroke-width="1.5"></rect><text x="167" y="422.1" text-anchor="middle" font-family="Manrope, system-ui, sans-serif" font-weight="700" font-size="16" fill="#12172B">Cluster</text><text x="167" y="441.1" text-anchor="middle" font-family="Manrope, system-ui, sans-serif" font-weight="700" font-size="16" fill="#12172B">Autoscaler</text><rect x="282" y="378" width="186" height="96" rx="14" fill="#EAF7EF" stroke="#1FAA5955" stroke-width="1.5"></rect><text x="375" y="431.6" text-anchor="middle" font-family="Manrope, system-ui, sans-serif" font-weight="700" font-size="16" fill="#12172B">gRPC Server</text><rect x="490" y="378" width="186" height="96" rx="14" fill="#EAF7EF" stroke="#1FAA5955" stroke-width="1.5"></rect><text x="583" y="422.1" text-anchor="middle" font-family="Manrope, system-ui, sans-serif" font-weight="700" font-size="16" fill="#12172B">Consumer</text><text x="583" y="441.1" text-anchor="middle" font-family="Manrope, system-ui, sans-serif" font-weight="700" font-size="16" fill="#12172B">Agent</text><rect x="74" y="502" width="230" height="64" rx="16" fill="#EAF7EF" stroke="#1FAA5966" stroke-width="1.5" filter="url(#softShadow)"></rect><rect x="86" y="516" width="36" height="36" rx="10" fill="#fff"></rect><g transform="translate(94,524) scale(0.8333333333333334)"><g transform="rotate(45 12 12)"><rect x="5" y="5" width="14" height="14" rx="4" fill="#D9A215"></rect></g><circle cx="8.6" cy="8.6" r="1.7" fill="#fff"></circle></g><text x="134" y="528" font-family="Manrope, system-ui, sans-serif" font-weight="600" font-size="11" letter-spacing="1" fill="#0E7A3E">POLICY</text><text x="134" y="549" font-family="Manrope, system-ui, sans-serif" font-weight="800" font-size="16" fill="#12172B">Price · Eco · Latency</text><rect x="324" y="502" width="130" height="64" rx="16" fill="#FBFCFE" stroke="rgba(18,23,43,0.10)" stroke-width="1.5" filter="url(#softShadow)"></rect><g transform="translate(377,514) scale(1)"><path d="M12,2 C7.58,2 4,5.58 4,10 C4,15.5 12,22 12,22 C12,22 20,15.5 20,10 C20,5.58 16.42,2 12,2 Z" fill="#EF6448"></path><circle cx="12" cy="10" r="2.8" fill="#fff"></circle></g><text x="389" y="552" text-anchor="middle" font-family="Manrope, system-ui, sans-serif" font-weight="600" font-size="13" fill="#8A93A8">Region</text><text x="74" y="590" font-family="Manrope, system-ui, sans-serif" font-weight="700" font-size="13" letter-spacing="1" fill="#8A93A8">WORKLOAD · 5 PODS · 3 FIT, 2 OVERFLOW</text><rect x="182" y="606" width="78" height="78" rx="17.16" fill="#22C55E" filter="url(#podShadow)"></rect><rect x="192.92000000000002" y="617.7" width="56.16" height="12.48" rx="8" fill="rgba(255,255,255,0.38)"></rect><rect x="284" y="606" width="78" height="78" rx="17.16" fill="#22C55E" filter="url(#podShadow)"></rect><rect x="294.92" y="617.7" width="56.16" height="12.48" rx="8" fill="rgba(255,255,255,0.38)"></rect><rect x="386" y="606" width="78" height="78" rx="17.16" fill="#22C55E" filter="url(#podShadow)"></rect><rect x="396.92" y="617.7" width="56.16" height="12.48" rx="8" fill="rgba(255,255,255,0.38)"></rect><rect x="488" y="606" width="78" height="78" rx="17.16" fill="none" stroke="#1FAA59" stroke-opacity="0.35" stroke-width="2.5" stroke-dasharray="6 7"></rect><rect x="590" y="606" width="78" height="78" rx="17.16" fill="none" stroke="#1FAA59" stroke-opacity="0.35" stroke-width="2.5" stroke-dasharray="6 7"></rect>
<rect x="700" y="50" width="520" height="260" rx="28" fill="#FFFFFF" stroke="#D9A215" stroke-width="3" filter="url(#cardShadow)"></rect><rect x="722" y="33" width="120" height="34" rx="17" fill="#D9A215"></rect><text x="782" y="56.5" text-anchor="middle" font-family="Manrope, system-ui, sans-serif" font-weight="800" font-size="19" letter-spacing="0.4" fill="#fff">CENTRAL</text><rect x="724" y="78" width="472" height="204" rx="14" fill="#FFF7E0" stroke="#D9A21555" stroke-width="1.5"></rect><text x="960" y="196" text-anchor="middle" font-family="Manrope, system-ui, sans-serif" font-weight="800" font-size="34" fill="#8A6206">Broker</text><text x="960" y="230" text-anchor="middle" font-family="Manrope, system-ui, sans-serif" font-weight="600" font-size="16" fill="#D9A215">makes every scaling decision</text>
<rect x="1460" y="350" width="410" height="160" rx="28" fill="#FFFFFF" stroke="#1FAA59" stroke-width="3.5" filter="url(#cardShadow)"></rect><rect x="1482" y="333" width="146" height="34" rx="17" fill="#2F6FE4"></rect><text x="1555" y="356.5" text-anchor="middle" font-family="Manrope, system-ui, sans-serif" font-weight="800" font-size="19" letter-spacing="0.4" fill="#fff">PROVIDER 1</text><rect x="1494" y="380" width="78" height="56" rx="16" fill="#FBFCFE" stroke="rgba(18,23,43,0.10)" stroke-width="1.5" filter="url(#softShadow)"></rect><g transform="translate(1521,392) scale(1)"><g transform="rotate(45 12 12)"><rect x="5" y="5" width="14" height="14" rx="4" fill="#D9A215"></rect></g><circle cx="8.6" cy="8.6" r="1.7" fill="#fff"></circle></g><text x="1533" y="422" text-anchor="middle" font-family="Manrope, system-ui, sans-serif" font-weight="600" font-size="13" fill="#8A93A8">Price</text><rect x="1582" y="380" width="78" height="56" rx="16" fill="#FBFCFE" stroke="rgba(18,23,43,0.10)" stroke-width="1.5" filter="url(#softShadow)"></rect><g transform="translate(1609,392) scale(1)"><path d="M12,2 C7.58,2 4,5.58 4,10 C4,15.5 12,22 12,22 C12,22 20,15.5 20,10 C20,5.58 16.42,2 12,2 Z" fill="#EF6448"></path><circle cx="12" cy="10" r="2.8" fill="#fff"></circle></g><text x="1621" y="422" text-anchor="middle" font-family="Manrope, system-ui, sans-serif" font-weight="600" font-size="13" fill="#8A93A8">Region</text><rect x="1670" y="380" width="78" height="56" rx="16" fill="#FBFCFE" stroke="rgba(18,23,43,0.10)" stroke-width="1.5" filter="url(#softShadow)"></rect><g transform="translate(1697,392) scale(1)"><circle cx="12" cy="12" r="9" stroke="rgba(18,23,43,0.12)" stroke-width="3" fill="none"></circle><circle cx="12" cy="12" r="9" stroke="#2F6FE4" stroke-width="3" fill="none" stroke-dasharray="35.06017401406209 56.548667764616276" stroke-linecap="round" transform="rotate(-90 12 12)"></circle></g><text x="1709" y="422" text-anchor="middle" font-family="Manrope, system-ui, sans-serif" font-weight="600" font-size="13" fill="#8A93A8">Capacity</text><rect x="1758" y="380" width="78" height="56" rx="16" fill="#FBFCFE" stroke="rgba(18,23,43,0.10)" stroke-width="1.5" filter="url(#softShadow)"></rect><g transform="translate(1785,392) scale(1)"><path d="M12,21 C4,21 3,11.5 3,5.5 C11,5.5 12,10 12,21 Z" fill="#22A05D"></path><path d="M4.2,6.5 C9,7.5 11,11 11.6,19.5" stroke="rgba(255,255,255,0.55)" stroke-width="1.1" fill="none" stroke-linecap="round"></path></g><text x="1797" y="422" text-anchor="middle" font-family="Manrope, system-ui, sans-serif" font-weight="600" font-size="13" fill="#8A93A8">Carbon</text><text x="1484" y="494" font-family="Manrope, system-ui, sans-serif" font-weight="800" font-size="15" fill="#0E7A3E">Cheapest</text><rect x="1460" y="528" width="410" height="160" rx="28" fill="#FFFFFF" stroke="#2F6FE4" stroke-width="3" filter="url(#cardShadow)"></rect><rect x="1482" y="511" width="146" height="34" rx="17" fill="#2F6FE4"></rect><text x="1555" y="534.5" text-anchor="middle" font-family="Manrope, system-ui, sans-serif" font-weight="800" font-size="19" letter-spacing="0.4" fill="#fff">PROVIDER 2</text><rect x="1494" y="558" width="78" height="56" rx="16" fill="#FBFCFE" stroke="rgba(18,23,43,0.10)" stroke-width="1.5" filter="url(#softShadow)"></rect><g transform="translate(1521,570) scale(1)"><g transform="rotate(45 12 12)"><rect x="5" y="5" width="14" height="14" rx="4" fill="#D9A215"></rect></g><circle cx="8.6" cy="8.6" r="1.7" fill="#fff"></circle></g><text x="1533" y="600" text-anchor="middle" font-family="Manrope, system-ui, sans-serif" font-weight="600" font-size="13" fill="#8A93A8">Price</text><rect x="1582" y="558" width="78" height="56" rx="16" fill="#FBFCFE" stroke="rgba(18,23,43,0.10)" stroke-width="1.5" filter="url(#softShadow)"></rect><g transform="translate(1609,570) scale(1)"><path d="M12,2 C7.58,2 4,5.58 4,10 C4,15.5 12,22 12,22 C12,22 20,15.5 20,10 C20,5.58 16.42,2 12,2 Z" fill="#EF6448"></path><circle cx="12" cy="10" r="2.8" fill="#fff"></circle></g><text x="1621" y="600" text-anchor="middle" font-family="Manrope, system-ui, sans-serif" font-weight="600" font-size="13" fill="#8A93A8">Region</text><rect x="1670" y="558" width="78" height="56" rx="16" fill="#FBFCFE" stroke="rgba(18,23,43,0.10)" stroke-width="1.5" filter="url(#softShadow)"></rect><g transform="translate(1697,570) scale(1)"><circle cx="12" cy="12" r="9" stroke="rgba(18,23,43,0.12)" stroke-width="3" fill="none"></circle><circle cx="12" cy="12" r="9" stroke="#2F6FE4" stroke-width="3" fill="none" stroke-dasharray="44.107960856400695 56.548667764616276" stroke-linecap="round" transform="rotate(-90 12 12)"></circle></g><text x="1709" y="600" text-anchor="middle" font-family="Manrope, system-ui, sans-serif" font-weight="600" font-size="13" fill="#8A93A8">Capacity</text><rect x="1758" y="558" width="78" height="56" rx="16" fill="#FBFCFE" stroke="rgba(18,23,43,0.10)" stroke-width="1.5" filter="url(#softShadow)"></rect><g transform="translate(1785,570) scale(1)"><path d="M12,21 C4,21 3,11.5 3,5.5 C11,5.5 12,10 12,21 Z" fill="#22A05D"></path><path d="M4.2,6.5 C9,7.5 11,11 11.6,19.5" stroke="rgba(255,255,255,0.55)" stroke-width="1.1" fill="none" stroke-linecap="round"></path></g><text x="1797" y="600" text-anchor="middle" font-family="Manrope, system-ui, sans-serif" font-weight="600" font-size="13" fill="#8A93A8">Carbon</text><text x="1484" y="672" font-family="Manrope, system-ui, sans-serif" font-weight="800" font-size="15" fill="#1D4FB0">Greenest</text><rect x="1460" y="706" width="410" height="160" rx="28" fill="#FFFFFF" stroke="#2F6FE4" stroke-width="3" filter="url(#cardShadow)"></rect><rect x="1482" y="689" width="146" height="34" rx="17" fill="#2F6FE4"></rect><text x="1555" y="712.5" text-anchor="middle" font-family="Manrope, system-ui, sans-serif" font-weight="800" font-size="19" letter-spacing="0.4" fill="#fff">PROVIDER 3</text><rect x="1494" y="736" width="78" height="56" rx="16" fill="#FBFCFE" stroke="rgba(18,23,43,0.10)" stroke-width="1.5" filter="url(#softShadow)"></rect><g transform="translate(1521,748) scale(1)"><g transform="rotate(45 12 12)"><rect x="5" y="5" width="14" height="14" rx="4" fill="#D9A215"></rect></g><circle cx="8.6" cy="8.6" r="1.7" fill="#fff"></circle></g><text x="1533" y="778" text-anchor="middle" font-family="Manrope, system-ui, sans-serif" font-weight="600" font-size="13" fill="#8A93A8">Price</text><rect x="1582" y="736" width="78" height="56" rx="16" fill="#FBFCFE" stroke="rgba(18,23,43,0.10)" stroke-width="1.5" filter="url(#softShadow)"></rect><g transform="translate(1609,748) scale(1)"><path d="M12,2 C7.58,2 4,5.58 4,10 C4,15.5 12,22 12,22 C12,22 20,15.5 20,10 C20,5.58 16.42,2 12,2 Z" fill="#EF6448"></path><circle cx="12" cy="10" r="2.8" fill="#fff"></circle></g><text x="1621" y="778" text-anchor="middle" font-family="Manrope, system-ui, sans-serif" font-weight="600" font-size="13" fill="#8A93A8">Region</text><rect x="1670" y="736" width="78" height="56" rx="16" fill="#FBFCFE" stroke="rgba(18,23,43,0.10)" stroke-width="1.5" filter="url(#softShadow)"></rect><g transform="translate(1697,748) scale(1)"><circle cx="12" cy="12" r="9" stroke="rgba(18,23,43,0.12)" stroke-width="3" fill="none"></circle><circle cx="12" cy="12" r="9" stroke="#2F6FE4" stroke-width="3" fill="none" stroke-dasharray="26.57787384936965 56.548667764616276" stroke-linecap="round" transform="rotate(-90 12 12)"></circle></g><text x="1709" y="778" text-anchor="middle" font-family="Manrope, system-ui, sans-serif" font-weight="600" font-size="13" fill="#8A93A8">Capacity</text><rect x="1758" y="736" width="78" height="56" rx="16" fill="#FBFCFE" stroke="rgba(18,23,43,0.10)" stroke-width="1.5" filter="url(#softShadow)"></rect><g transform="translate(1785,748) scale(1)"><path d="M12,21 C4,21 3,11.5 3,5.5 C11,5.5 12,10 12,21 Z" fill="#22A05D"></path><path d="M4.2,6.5 C9,7.5 11,11 11.6,19.5" stroke="rgba(255,255,255,0.55)" stroke-width="1.1" fill="none" stroke-linecap="round"></path></g><text x="1797" y="778" text-anchor="middle" font-family="Manrope, system-ui, sans-serif" font-weight="600" font-size="13" fill="#8A93A8">Carbon</text><text x="1484" y="850" font-family="Manrope, system-ui, sans-serif" font-weight="800" font-size="15" fill="#1D4FB0">Nearest</text><rect x="1747" y="453" width="54" height="54" rx="11.88" fill="#EF4444" filter="url(#podShadow)"></rect><rect x="1754.56" y="461.1" width="38.879999999999995" height="8.64" rx="8" fill="rgba(255,255,255,0.38)"></rect><rect x="1803" y="453" width="54" height="54" rx="11.88" fill="#EF4444" filter="url(#podShadow)"></rect><rect x="1810.56" y="461.1" width="38.879999999999995" height="8.64" rx="8" fill="rgba(255,255,255,0.38)"></rect><text x="1802" y="446" text-anchor="middle" font-family="Manrope, system-ui, sans-serif" font-weight="700" font-size="13" fill="#EF4444">2 overflow pods</text>
<rect x="1460" y="890" width="410" height="140" rx="28" fill="#FFFFFF" stroke="#8B5CF6" stroke-width="3" filter="url(#cardShadow)"></rect><rect x="1482" y="873" width="158" height="34" rx="17" fill="#8B5CF6"></rect><text x="1561" y="896.5" text-anchor="middle" font-family="Manrope, system-ui, sans-serif" font-weight="800" font-size="19" letter-spacing="0.4" fill="#fff">MOCK SERVER</text><rect x="1480" y="920" width="175" height="80" rx="14" fill="#F3EDFE" stroke="#8B5CF655" stroke-width="1.5"></rect><text x="1567.5" y="965.6" text-anchor="middle" font-family="Manrope, system-ui, sans-serif" font-weight="700" font-size="16" fill="#12172B">mock‑eco</text><rect x="1675" y="920" width="175" height="80" rx="14" fill="#F3EDFE" stroke="#8B5CF655" stroke-width="1.5"></rect><text x="1762.5" y="965.6" text-anchor="middle" font-family="Manrope, system-ui, sans-serif" font-weight="700" font-size="16" fill="#12172B">mock‑geo</text>
<g transform="translate(50,60)">
<rect x="0" y="0" width="470" height="150" rx="18" fill="#fff" stroke="rgba(18,23,43,0.08)" stroke-width="1.5" filter="url(#softShadow)"></rect>
<text x="24" y="34" font-family="Manrope, system-ui, sans-serif" font-weight="800" font-size="18" fill="#12172B">Federation Autoscaler — Architecture</text>
<line x1="24" y1="62" x2="70" y2="62" stroke="rgba(74,84,104,0.42)" stroke-width="2.5" stroke-dasharray="3 9" stroke-linecap="round"></line>
<text x="82" y="67" font-family="Manrope, system-ui, sans-serif" font-weight="600" font-size="15" fill="#4A5468">Config &amp; carbon / geo data flow</text>
<line x1="24" y1="94" x2="70" y2="94" stroke="#B453FF" stroke-width="3" stroke-linecap="round"></line>
<text x="82" y="99" font-family="Manrope, system-ui, sans-serif" font-weight="600" font-size="15" fill="#4A5468">Liqo peering (workload offload)</text>
<rect x="26" y="118" width="18" height="18" rx="5" fill="#EF4444"></rect>
<text x="82" y="131" font-family="Manrope, system-ui, sans-serif" font-weight="600" font-size="15" fill="#4A5468">Overflow pods offloaded to a provider</text>
</g>
</svg>